<svg width="772" height="551" viewBox="0 0 772 551" fill="none" xmlns="http://www.w3.org/2000/svg">
<g id="Frame 5">
<path id="Text" d="M501.201 88C510.768 88 518.542 91.2 524.522 97.6C530.9 103.6 534.089 111.8 534.089 122.2C534.089 128.2 532.893 134.2 530.501 140.2C528.508 146.2 525.319 153.6 520.934 162.4C520.137 164 518.143 168.4 514.954 175.6C511.765 182.4 508.975 189.6 506.583 197.2C504.191 204.4 502.397 211.6 501.201 218.8C499.606 208.4 497.215 199 494.025 190.6C490.836 181.8 486.85 172.4 482.066 162.4C477.681 153.6 474.293 146.2 471.901 140.2C469.908 134.2 468.911 128.2 468.911 122.2C468.911 111.8 471.901 103.6 477.88 97.6C484.259 91.2 492.032 88 501.201 88ZM434.229 142C439.411 144.8 443.996 148.8 447.982 154C451.969 158.8 456.752 165.4 462.333 173.8C468.712 183.4 474.691 191.6 480.272 198.4C486.252 205.2 493.228 212 501.201 218.8C491.634 214.8 482.465 212.2 473.695 211C465.323 209.4 454.958 208.2 442.601 207.4C432.634 206.6 424.462 205.6 418.084 204.4C412.104 203.2 406.523 201.2 401.341 198.4C395.76 195.2 391.375 191.2 388.186 186.4C385.395 181.2 384 175.8 384 170.2C384 164.6 385.595 159 388.784 153.4C391.574 148.2 395.361 144.2 400.145 141.4C404.929 138.6 410.111 137.2 415.692 137.2C422.07 137.2 428.249 138.8 434.229 142ZM614.216 153.4C617.405 159 619 164.6 619 170.2C619 175.8 617.405 181.2 614.216 186.4C611.426 191.2 607.041 195.2 601.061 198.4C595.879 201.2 590.098 203.2 583.72 204.4C577.74 205.6 569.768 206.6 559.802 207.4C536.68 209 517.147 212.8 501.201 218.8C508.377 212.8 514.556 206.8 519.738 200.8C524.92 194.8 529.305 189.2 532.893 184C536.88 178.8 539.471 175.4 540.667 173.8C546.248 165.4 551.031 158.8 555.018 154C559.004 148.8 563.589 144.8 568.771 142C573.953 138.8 579.933 137.2 586.71 137.2C592.291 137.2 597.473 138.6 602.257 141.4C607.041 144.2 611.027 148.2 614.216 153.4ZM388.784 283.6C385.595 278 384 272.4 384 266.8C384 255.2 389.78 245.8 401.341 238.6C406.523 235.8 412.304 233.8 418.682 232.6C425.06 231.4 433.232 230.4 443.198 229.6C455.158 228.8 465.323 227.8 473.695 226.6C482.465 225 491.634 222.4 501.201 218.8C487.647 230 474.691 245 462.333 263.8C456.752 272.2 451.969 278.8 447.982 283.6C443.996 288.4 439.411 292.2 434.229 295C427.452 298.6 421.273 300.4 415.692 300.4C410.111 300.4 404.929 299 400.145 296.2C395.361 293 391.574 288.8 388.784 283.6ZM501.201 349C492.032 349 484.259 346 477.88 340C471.901 334 468.911 325.8 468.911 315.4C468.911 309.4 469.908 303.6 471.901 298C473.894 292.4 477.282 284.6 482.066 274.6C486.85 264.6 490.836 255.4 494.025 247C497.215 238.2 499.606 228.8 501.201 218.8C502.796 228 504.988 236.4 507.779 244C510.569 251.6 513.16 258.4 515.552 264.4C518.343 270 520.137 273.6 520.934 275.2C525.319 284 528.508 291.4 530.501 297.4C532.893 303.4 534.089 309.4 534.089 315.4C534.089 325.8 530.9 334 524.522 340C518.542 346 510.768 349 501.201 349ZM601.061 238.6C613.02 245.8 619 255.2 619 266.8C619 272.4 617.405 278 614.216 283.6C611.426 288.8 607.439 293 602.257 296.2C597.473 299 592.291 300.4 586.71 300.4C580.73 300.4 574.751 298.6 568.771 295C563.589 292.2 559.204 288.6 555.616 284.2C552.028 279.8 546.846 273 540.069 263.8C533.69 253.8 527.711 245.4 522.13 238.6C516.549 231.8 509.573 225.2 501.201 218.8C510.768 222.4 519.937 225 528.707 226.6C537.478 227.8 547.842 228.8 559.802 229.6C569.768 230.4 577.74 231.4 583.72 232.6C590.098 233.8 595.879 235.8 601.061 238.6Z" fill="#FFF0E2"/>
</g>
</svg>
